:SAMPLES-PER-SECOND 30
:FULLY-SPECIFIED
:DEGREES
112
root  -54.1052 39.2081 -3.79717 -3.28519 -77.3966 -2.88548
RightUpLeg  -20.4315 -24.0897 0.172532
RightLeg  23.3019 -3.38939 -1.42963
RightFoot  3.02246 0.713306 -5.48952
RightToes  0.00048216 0.542163 -0.142577
Spine  20.7766 0.0306355 13.6233
Spine1  6.37489 2.30705 0.160321
HEad  1.64476 -12.8743 -2.32037
LeftShoulder1  9.48447 -13.0465 -50.0277
LeftArm  -8.81329 14.4586 -24.9113
LeftForeArm  27.4767 -8.76691 -5.72656
LeftHand  -0.25398 0.0180481 5.50724
RightShoulder  5.7227 9.35507 38.4421
RightArm  -8.63814 -7.03971 30.4217
RightForeArm  -9.30613 38.3049 9.39692
RightHand  -2.40376 5.94146 -24.6471
LeftUpLeg  -30.1873 4.43241 -1.54342
LeftLeg  67.4175 2.04145 6.10952
LeftFoot  -2.39119 0.202641 -2.4053
LeftToes  1.06246e-005 4.65856e-005 -8.18505e-006
113
root  -55.0372 39.762 -3.77049 -5.43581 -78.7171 -0.235809
RightUpLeg  -16.9194 -20.6957 -1.65346
RightLeg  19.6666 -5.87692 -0.12496
RightFoot  3.41793 0.659627 -4.90891
RightToes  0.00048216 0.542163 -0.142577
Spine  20.3536 0.702612 13.0957
Spine1  6.07694 2.83174 0.0994255
HEad  1.21601 -12.7377 -3.35114
LeftShoulder1  9.2741 -12.8289 -49.5714
LeftArm  -8.69018 17.9548 -25.9643
LeftForeArm  29.6285 -10.3395 -5.40583
LeftHand  -0.25398 0.0180481 5.50724
RightShoulder  5.65288 9.25651 38.247
RightArm  -7.99155 -6.16701 30.7876
RightForeArm  -7.9151 41.0319 10.228
RightHand  -2.37033 5.81942 -24.5704
LeftUpLeg  -29.7616 6.78217 -2.92379
LeftLeg  58.9156 3.6267 7.07046
LeftFoot  -3.21317 0.134433 -1.62029
LeftToes  1.06246e-005 4.65856e-005 -8.18505e-006
114
root  -55.9343 40.2498 -3.70573 -9.26491 -80.1358 4.30005
RightUpLeg  -14.1304 -16.5611 -3.46632
RightLeg  16.2761 -8.46121 1.21083
RightFoot  3.99495 0.640717 -4.54856
RightToes  0.00048216 0.542163 -0.142577
Spine  19.527 1.12086 12.4949
Spine1  5.94609 3.24838 -0.780563
HEad  -0.308198 -12.0742 -4.19834
LeftShoulder1  9.09636 -12.6201 -49.2512
LeftArm  -8.33641 21.6786 -26.872
LeftForeArm  30.1532 -13.6328 -4.75705
LeftHand  -0.25398 0.0180481 5.50724
RightShoulder  5.59368 9.1238 38.2437
RightArm  -6.4431 -5.45676 31.6088
RightForeArm  -5.99282 42.6553 10.6963
RightHand  -2.29204 5.58056 -24.2818
LeftUpLeg  -28.1413 9.06728 -4.49406
LeftLeg  47.4712 4.11311 5.28435
LeftFoot  -4.06429 0.114305 -1.4257
LeftToes  1.06246e-005 4.65856e-005 -8.18505e-006
115
root  -56.8245 40.577 -3.60553 -12.793 -81.5824 8.39268
RightUpLeg  -12.083 -13.8045 -4.4209
RightLeg  13.8998 -9.64245 2.20555
RightFoot  3.72782 0.652032 -4.73301
RightToes  0.00048216 0.542163 -0.142577
Spine  18.4227 1.30676 12.3129
Spine1  6.22697 3.5292 -1.85965
HEad  -2.77993 -10.9359 -4.97375
LeftShoulder1  9.05642 -12.5726 -49.1791
LeftArm  -8.96667 25.0627 -27.6969
LeftForeArm  27.3335 -16.5973 -4.04389
LeftHand  -0.25398 0.0180481 5.50724
RightShoulder  5.58269 9.10575 38.2209
RightArm  -4.75716 -5.05787 32.7686
RightForeArm  -4.63281 43.1889 10.8118
RightHand  -2.09862 4.94514 -23.6125
LeftUpLeg  -25.3508 10.5602 -5.57291
LeftLeg  34.6427 3.01072 2.60088
LeftFoot  -3.58852 0.162343 -2.05203
LeftToes  1.06246e-005 4.65856e-005 -8.18505e-006
116
root  -57.7208 40.7015 -3.47363 -10.8968 -83.5089 6.6073
RightUpLeg  -10.5445 -11.8407 -4.10098
RightLeg  13.0929 -10.0421 2.73353
RightFoot  2.78936 0.627235 -4.89897
RightToes  0.00048216 0.542163 -0.142577
Spine  17.3542 1.45471 12.9969
Spine1  6.62273 3.80514 -2.53801
HEad  -5.3009 -9.51779 -5.83858
LeftShoulder1  8.97155 -12.469 -49.0326
LeftArm  -11.8275 27.4833 -29.039
LeftForeArm  24.7199 -17.738 -3.63843
LeftHand  -0.25398 0.0180481 5.50724
RightShoulder  5.61154 9.16996 38.2241
RightArm  -3.01589 -5.05928 33.8092
RightForeArm  -4.19523 42.8296 10.651
RightHand  -1.88602 4.24354 -22.7844
LeftUpLeg  -21.6809 11.4822 -5.22319
LeftLeg  23.0531 1.39969 1.03526
LeftFoot  -1.57429 0.314462 -3.53391
LeftToes  1.06246e-005 4.65856e-005 -8.18505e-006
117
root  -58.6114 40.7164 -3.30976 6.96468 -85.8978 -11.5162
RightUpLeg  -9.0874 -10.6179 -2.60633
RightLeg  13.05 -9.2619 3.08987
RightFoot  1.84572 0.568385 -4.80365
RightToes  0.00048216 0.542163 -0.142577
Spine  16.2388 1.62036 14.2553
Spine1  7.10932 4.1393 -2.91539
HEad  -7.07281 -7.78616 -6.57743
LeftShoulder1  8.7131 -12.1151 -48.6956
LeftArm  -15.4876 28.8645 -31.0622
LeftForeArm  24.1013 -17.5036 -3.32764
LeftHand  -0.25398 0.0180481 5.50724
RightShoulder  5.68704 9.20163 38.6882
RightArm  -1.07714 -5.28891 34.1325
RightForeArm  -4.10899 41.6744 10.228
RightHand  -1.74215 3.82621 -22.0171
LeftUpLeg  -17.739 12.1097 -3.2443
LeftLeg  14.8081 1.04437 0.21111
LeftFoot  1.02223 0.444771 -4.20533
LeftToes  1.06246e-005 4.65856e-005 -8.18505e-006
